# xmcd CD database file
#
# Track frame offsets:
#	150
#	36745
#	60145
#	74387
#	95755
#	114710
#	135662
#	183875
#	207080
#	231595
#	270945
#	278975
#	293450
#
# Disc length: 4295 seconds
#
# Revision: 1
# Processed by: cddbd v1.5.1PL0 Copyright (c) Steve Scherf et al.
# Submitted via: CDex 1.51
#
DISCID=c210c50d
DTITLE=Jack Bruce - Concert Classics Volume 9
DYEAR=1999
DGENRE=
TTITLE0=White Room
TTITLE1=Hit And Run
TTITLE2=Clempson's Blues Solo
TTITLE3=Born Under A Bad Sign
TTITLE4=Living Without Ja
TTITLE5=Dancing On Air
TTITLE6=Post War
TTITLE7=Theme From An Imaginary Western
TTITLE8=Face Lift
TTITLE9=Tightrope
TTITLE10=Morning Story
TTITLE11=Traintime
TTITLE12=Politician
EXTD=YEAR: 1999
EXTT0=
EXTT1=
EXTT2=
EXTT3=
EXTT4=
EXTT5=
EXTT6=
EXTT7=
EXTT8=
EXTT9=
EXTT10=
EXTT11=
EXTT12=
PLAYORDER=
